Coordinates																	
version=1																	
nRows=25																	
nColumns=18																	
inDegrees=yes																	
endheader																	
time	ground_thorax_rot_x	ground_thorax_rot_y	ground_thorax_rot_z	ground_thorax_tx	ground_thorax_ty	ground_thorax_tz	clav_prot	clav_elev	scapula_abduction	scapula_elevation	scapula_upward_rot	scapula_winging	plane_elv	shoulder_elv	axial_rot	elbow_flexion	pro_sup
10.69	0.26578675	-6.00782442	-9.9196972	-0.00423131	0.00403036	-0.00078352	-21.58752689	1.78530116	11.25808635	-5.59571968	45.99947991	-3.62424536	58.76267258	62.74268809	-15.54264947	0	34.32
10.7	0.30348122	-6.31775266	-10.08860649	-0.00423131	0.00403036	-0.00078352	-21.42513489	1.80856175	11.92962296	-5.61608563	46.47953259	-3.7029608	58.26343022	63.52405004	-18.14448862	0	34.32
10.71	0.01790692	-6.22229851	-10.16547843	-0.00423131	0.00403036	-0.00078352	-21.58136855	1.56012903	11.57017344	-5.78485635	46.30862086	-3.59255459	58.57426005	64.27908343	-16.73715311	0	34.32
10.72	-0.19223549	-6.26331884	-10.02528134	-0.00423131	0.00403036	-0.00078352	-21.63815722	1.60063659	11.56875277	-5.77168256	46.44209	-3.61925992	58.57477678	64.49034204	-16.73958983	0	34.32
10.73	-0.36227998	-6.18961307	-10.19371886	-0.00423131	0.00403036	-0.00078352	-21.83606174	1.44372343	11.21518916	-5.88944758	46.39427327	-3.55160171	58.82526176	65.25222795	-15.4465809	0	34.32
10.74	0.29771168	-6.2287434	-10.2129316	-0.00423131	0.00403036	-0.00078352	-22.22778401	2.35490188	11.45972317	-5.39201475	47.80215265	-3.99578429	58.5008983	64.97802087	-16.7795481	0	34.32
10.75	-0.00358323	-6.07215884	-10.2980322	-0.00423131	0.00403036	-0.00078352	-22.42243508	2.17400606	11.09204743	-5.52432636	47.72371187	-3.9241673	58.49734098	65.56468377	-15.60897673	0	34.32
10.76	-0.23683183	-6.13851975	-10.13599116	-0.00423131	0.00403036	-0.00078352	-22.47818454	2.22006696	11.09346248	-5.50635837	47.85926133	-3.95283427	58.4987571	65.80067861	-15.61251057	0	34.32
10.77	0.30115598	-6.21777966	-10.29299468	-0.00423131	0.00403036	-0.00078352	-22.87599754	2.8207346	11.00392206	-5.18095827	48.78126356	-4.23383319	58.90129788	66.09932938	-14.77946764	0	34.32
10.78	-0.28180922	-6.28468229	-10.23381377	-0.00423131	0.00403036	-0.00078352	-22.77327005	2.31863075	10.71512764	-5.47071743	48.06388075	-4.00052958	59.20116002	67.04547445	-13.36698561	0	34.32
10.79	0.18411429	-6.62846916	-10.32474583	-0.00423131	0.00403036	-0.00078352	-22.86166876	2.90740625	11.50078964	-5.1663104	49.37914814	-4.32547211	58.48478474	66.78366311	-15.96900087	0	34.32
10.8	-0.03019973	-6.70844113	-10.17986765	-0.00423131	0.00403036	-0.00078352	-22.9214253	2.92979116	11.48389758	-5.16259761	49.49367429	-4.34342454	58.44966627	67.02564246	-15.96759684	0	34.32
10.81	0.07522613	-6.60165172	-10.47356912	-0.00423131	0.00403036	-0.00078352	-23.36469679	3.02761495	11.22998356	-5.16934162	50.16787585	-4.44056136	58.56300721	67.35576137	-14.62042177	0	34.32
10.82	0.17322237	-6.74018289	-10.45799009	-0.00423131	0.00403036	-0.00078352	-23.39264484	3.36451174	11.36961034	-4.95683524	50.49223283	-4.57265057	58.38743649	67.90374275	-15.11742733	0	34.32
10.83	0.01135574	-6.69860636	-10.51212768	-0.00423131	0.00403036	-0.00078352	-23.54788924	3.3719886	11.29753833	-4.97801487	50.74049384	-4.60020697	58.20127393	68.12860146	-14.91051456	0	34.32
10.84	0.02913605	-6.6875648	-10.52339812	-0.00423131	0.00403036	-0.00078352	-23.67008969	3.58060074	11.26098276	-4.8573607	51.01775006	-4.68875313	58.0678732	68.38245697	-14.72086684	0	34.32
10.85	0.0241422	-6.72454461	-10.58536806	-0.00423131	0.00403036	-0.00078352	-23.84351531	3.7340323	11.23037549	-4.78488397	51.39616035	-4.7712312	58.11861474	68.57975269	-13.54233749	0	34.32
10.86	0.09648386	-6.82090412	-10.60393858	-0.00423131	0.00403036	-0.00078352	-23.96604013	3.98101888	11.29449814	-4.64496601	51.80592877	-4.8812519	58.06169216	69.06536874	-13.00766056	0	34.32
10.87	-0.19824859	-6.96286364	-10.4430348	-0.00423131	0.00403036	-0.00078352	-24.02815474	4.02006135	11.27634942	-4.62892943	51.92800617	-4.90442949	58.01205023	69.34699627	-13.01291786	0	34.32
10.88	0.07727891	-7.16422072	-10.65014632	-0.00423131	0.00403036	-0.00078352	-24.13949463	4.26808347	11.45500831	-4.49340519	52.4508608	-5.02128312	57.70768712	69.90673102	-13.17698613	0	34.32
10.89	-0.25687297	-6.977804	-10.79304269	-0.00423131	0.00403036	-0.00078352	-24.45407784	3.92010265	11.07472968	-4.76322102	52.56704874	-4.94575735	57.63739948	70.04810344	-12.34244304	0	34.32
10.9	-0.02429096	-7.21615756	-10.73884941	-0.00423131	0.00403036	-0.00078352	-24.45324609	4.24733523	11.39117616	-4.5605611	53.0373955	-5.07563689	57.38292592	70.36855637	-13.75435341	0	34.32
10.91	-0.33997392	-7.05919649	-10.90788009	-0.00423131	0.00403036	-0.00078352	-24.74453154	3.89852129	11.06630624	-4.830213	53.17024687	-5.00092348	57.33929145	70.7553331	-12.70097793	0	34.32
10.92	-0.60785053	-7.19978133	-10.74767031	-0.00423131	0.00403036	-0.00078352	-24.80724229	3.95158822	11.04193492	-4.80322398	53.28963652	-5.02861962	57.29010905	71.00061295	-12.70785672	0	34.32
10.93	-0.48293858	-7.19956513	-10.96484589	-0.00423131	0.00403036	-0.00078352	-25.15247971	4.0817895	10.92983341	-4.76639427	53.92714514	-5.13314354	57.03901139	71.27796004	-12.50737334	0	34.32
